<svg xmlns="http://www.w3.org/2000/svg" viewBox="0 0 640 300" width="640" height="300"><title>GIFT lockup</title><rect width="640" height="300" fill="#f4efe2"/><path d="M395 -10Q323 -10 260.5 14.5Q198 39 150.5 83.5Q103 128 76.5 187.5Q50 247 50 316Q50 393 80.5 457.5Q111 522 163.5 570.0Q216 618 284.0 644.0Q352 670 427 670Q480 670 517.5 664.0Q555 658 584.5 647.0Q614 636 643 622L654 446H637L541 591Q513 608 488.0 614.5Q463 621 431 621Q369 621 317.5 585.0Q266 549 236.0 484.5Q206 420 206 334Q206 244 235.0 179.5Q264 115 313.5 80.0Q363 45 424 45Q461 45 501 53V237L412 284V300H727V284L651 236V74Q621 49 577.5 30.0Q534 11 486.0 0.5Q438 -10 395 -10Z" transform="translate(182.445 140.000) scale(0.11000 -0.11000)" fill="#1c1a17"/><path d="M46 0V16L131 57V603L46 644V660H367V644L282 603V57L367 16V0Z" transform="translate(265.605 140.000) scale(0.11000 -0.11000)" fill="#1c1a17"/><path d="M44 0V16L129 57V603L44 644V660H579V487H563L495 605H280V365H424L480 451H496V232H480L424 316H280V57L382 16V0Z" transform="translate(311.035 140.000) scale(0.11000 -0.11000)" fill="#3f7d4e"/><path d="M169 0V16L275 57V605H132L52 440H36V660H665V440H649L569 605H426V57L532 16V0Z" transform="translate(380.445 140.000) scale(0.11000 -0.11000)" fill="#1c1a17"/><line x1="170.0" y1="166" x2="470.0" y2="166" stroke="#c9c0ab" stroke-width="2"/><path d="M304 -10Q238 -10 189.5 15.0Q141 40 114.5 87.5Q88 135 88 200V530Q88 596 114.5 643.0Q141 690 189.5 715.0Q238 740 304 740Q370 740 418.0 714.5Q466 689 492.0 642.0Q518 595 518 530H428Q428 592 395.5 625.5Q363 659 304 659Q245 659 211.5 626.0Q178 593 178 531V200Q178 138 211.5 104.0Q245 70 304 70Q363 70 395.5 104.0Q428 138 428 200V290H280V372H518V200Q518 136 492.0 88.5Q466 41 418.0 15.5Q370 -10 304 -10Z" transform="translate(172.560 196.000) scale(0.01500 -0.01500)" fill="#1c1a17"/><path d="M92 0V730H318Q383 730 432.0 703.5Q481 677 508.0 630.0Q535 583 535 520Q535 446 496.5 393.0Q458 340 392 320L545 0H439L299 310H182V0ZM182 391H318Q374 391 408.0 426.5Q442 462 442 520Q442 579 408.0 614.0Q374 649 318 649H182Z" transform="translate(182.560 196.000) scale(0.01500 -0.01500)" fill="#1c1a17"/><path d="M50 0 240 730H361L550 0H459L411 194H190L142 0ZM208 270H392L336 495Q320 559 311.0 602.0Q302 645 300 658Q298 645 289.0 602.0Q280 559 264 496Z" transform="translate(192.560 196.000) scale(0.01500 -0.01500)" fill="#1c1a17"/><path d="M90 0V730H210L433 105Q431 130 428.5 166.5Q426 203 424.5 243.5Q423 284 423 320V730H510V0H390L168 625Q170 601 172.0 564.5Q174 528 175.5 487.5Q177 447 177 410V0Z" transform="translate(202.560 196.000) scale(0.01500 -0.01500)" fill="#1c1a17"/><path d="M255 0V649H55V731H545V649H345V0Z" transform="translate(212.560 196.000) scale(0.01500 -0.01500)" fill="#1c1a17"/><path d="M105 0V82H254V648H105V730H495V648H346V82H495V0Z" transform="translate(232.560 196.000) scale(0.01500 -0.01500)" fill="#1c1a17"/><path d="M90 0V730H210L433 105Q431 130 428.5 166.5Q426 203 424.5 243.5Q423 284 423 320V730H510V0H390L168 625Q170 601 172.0 564.5Q174 528 175.5 487.5Q177 447 177 410V0Z" transform="translate(242.560 196.000) scale(0.01500 -0.01500)" fill="#1c1a17"/><path d="M92 0V730H281Q352 730 403.5 703.0Q455 676 483.5 627.0Q512 578 512 511V220Q512 153 483.5 103.5Q455 54 403.5 27.0Q352 0 281 0ZM182 80H281Q347 80 384.5 117.0Q422 154 422 220V511Q422 576 384.5 613.0Q347 650 281 650H182Z" transform="translate(252.560 196.000) scale(0.01500 -0.01500)" fill="#1c1a17"/><path d="M100 0V730H520V648H189V422H485V341H189V82H520V0Z" transform="translate(262.560 196.000) scale(0.01500 -0.01500)" fill="#1c1a17"/><path d="M40 0 250 370 51 730H155L268 514Q277 497 286.5 477.5Q296 458 302 447Q307 458 316.5 477.5Q326 497 335 514L450 730H549L350 376L560 0H457L332 232Q323 249 313.5 268.5Q304 288 299 300Q294 288 284.5 269.0Q275 250 266 233L140 0Z" transform="translate(272.560 196.000) scale(0.01500 -0.01500)" fill="#1c1a17"/><path d="M300 -10Q234 -10 186.5 15.0Q139 40 113.5 87.5Q88 135 88 200V530Q88 596 113.5 643.0Q139 690 186.5 715.0Q234 740 300 740Q366 740 413.5 715.0Q461 690 486.5 643.0Q512 596 512 531V200Q512 135 486.5 87.5Q461 40 413.5 15.0Q366 -10 300 -10ZM300 71Q359 71 390.5 104.5Q422 138 422 200V530Q422 592 390.5 625.5Q359 659 300 659Q242 659 210.0 625.5Q178 592 178 530V200Q178 138 210.0 104.5Q242 71 300 71Z" transform="translate(292.560 196.000) scale(0.01080 -0.01080)" fill="#9a917d"/><path d="M95 0V731H525V649H183V406H499V324H185V0Z" transform="translate(300.040 196.000) scale(0.01080 -0.01080)" fill="#9a917d"/><path d="M95 0V731H525V649H183V406H499V324H185V0Z" transform="translate(315.000 196.000) scale(0.01500 -0.01500)" fill="#1c1a17"/><path d="M300 -10Q198 -10 144.0 46.5Q90 103 90 200V730H180V200Q180 140 209.5 105.0Q239 70 300 70Q360 70 390.0 105.0Q420 140 420 200V730H510V200Q510 102 456.5 46.0Q403 -10 300 -10Z" transform="translate(325.000 196.000) scale(0.01500 -0.01500)" fill="#1c1a17"/><path d="M90 0V730H210L433 105Q431 130 428.5 166.5Q426 203 424.5 243.5Q423 284 423 320V730H510V0H390L168 625Q170 601 172.0 564.5Q174 528 175.5 487.5Q177 447 177 410V0Z" transform="translate(335.000 196.000) scale(0.01500 -0.01500)" fill="#1c1a17"/><path d="M92 0V730H281Q352 730 403.5 703.0Q455 676 483.5 627.0Q512 578 512 511V220Q512 153 483.5 103.5Q455 54 403.5 27.0Q352 0 281 0ZM182 80H281Q347 80 384.5 117.0Q422 154 422 220V511Q422 576 384.5 613.0Q347 650 281 650H182Z" transform="translate(345.000 196.000) scale(0.01500 -0.01500)" fill="#1c1a17"/><path d="M100 0V730H520V648H189V422H485V341H189V82H520V0Z" transform="translate(355.000 196.000) scale(0.01500 -0.01500)" fill="#1c1a17"/><path d="M92 0V730H318Q383 730 432.0 703.5Q481 677 508.0 630.0Q535 583 535 520Q535 446 496.5 393.0Q458 340 392 320L545 0H439L299 310H182V0ZM182 391H318Q374 391 408.0 426.5Q442 462 442 520Q442 579 408.0 614.0Q374 649 318 649H182Z" transform="translate(365.000 196.000) scale(0.01500 -0.01500)" fill="#1c1a17"/><path d="M304 -10Q232 -10 180.5 14.0Q129 38 101.0 83.0Q73 128 72 190H162Q162 135 199.5 103.0Q237 71 304 71Q367 71 402.5 102.0Q438 133 438 188Q438 232 414.5 265.0Q391 298 347 311L248 342Q173 365 132.5 419.0Q92 473 92 546Q92 605 118.5 648.5Q145 692 193.0 716.5Q241 741 306 741Q402 741 460.0 687.5Q518 634 519 545H429Q429 599 396.5 629.5Q364 660 305 660Q247 660 214.5 632.0Q182 604 182 554Q182 509 206.0 476.0Q230 443 275 429L375 397Q448 374 488.0 319.0Q528 264 528 190Q528 130 500.0 85.0Q472 40 421.5 15.0Q371 -10 304 -10Z" transform="translate(375.000 196.000) scale(0.01500 -0.01500)" fill="#1c1a17"/><path d="M105 0V82H254V648H105V730H495V648H346V82H495V0Z" transform="translate(395.000 196.000) scale(0.01080 -0.01080)" fill="#9a917d"/><path d="M90 0V730H210L433 105Q431 130 428.5 166.5Q426 203 424.5 243.5Q423 284 423 320V730H510V0H390L168 625Q170 601 172.0 564.5Q174 528 175.5 487.5Q177 447 177 410V0Z" transform="translate(402.480 196.000) scale(0.01080 -0.01080)" fill="#9a917d"/><path d="M255 0V649H55V731H545V649H345V0Z" transform="translate(417.440 196.000) scale(0.01500 -0.01500)" fill="#1c1a17"/><path d="M100 0V730H520V648H189V422H485V341H189V82H520V0Z" transform="translate(427.440 196.000) scale(0.01500 -0.01500)" fill="#1c1a17"/><path d="M40 0 250 370 51 730H155L268 514Q277 497 286.5 477.5Q296 458 302 447Q307 458 316.5 477.5Q326 497 335 514L450 730H549L350 376L560 0H457L332 232Q323 249 313.5 268.5Q304 288 299 300Q294 288 284.5 269.0Q275 250 266 233L140 0Z" transform="translate(437.440 196.000) scale(0.01500 -0.01500)" fill="#1c1a17"/><path d="M50 0 240 730H361L550 0H459L411 194H190L142 0ZM208 270H392L336 495Q320 559 311.0 602.0Q302 645 300 658Q298 645 289.0 602.0Q280 559 264 496Z" transform="translate(447.440 196.000) scale(0.01500 -0.01500)" fill="#1c1a17"/><path d="M304 -10Q232 -10 180.5 14.0Q129 38 101.0 83.0Q73 128 72 190H162Q162 135 199.5 103.0Q237 71 304 71Q367 71 402.5 102.0Q438 133 438 188Q438 232 414.5 265.0Q391 298 347 311L248 342Q173 365 132.5 419.0Q92 473 92 546Q92 605 118.5 648.5Q145 692 193.0 716.5Q241 741 306 741Q402 741 460.0 687.5Q518 634 519 545H429Q429 599 396.5 629.5Q364 660 305 660Q247 660 214.5 632.0Q182 604 182 554Q182 509 206.0 476.0Q230 443 275 429L375 397Q448 374 488.0 319.0Q528 264 528 190Q528 130 500.0 85.0Q472 40 421.5 15.0Q371 -10 304 -10Z" transform="translate(457.440 196.000) scale(0.01500 -0.01500)" fill="#1c1a17"/><path d="M50 0 240 730H361L550 0H459L411 194H190L142 0ZM208 270H392L336 495Q320 559 311.0 602.0Q302 645 300 658Q298 645 289.0 602.0Q280 559 264 496Z" transform="translate(281.600 230.000) scale(0.00900 -0.00900)" fill="#9a917d"/><path d="M92 0V730H327Q395 730 445.0 703.5Q495 677 522.5 629.0Q550 581 550 515Q550 450 522.5 401.5Q495 353 445.0 326.5Q395 300 327 300H182V0ZM182 381H327Q386 381 421.5 417.5Q457 454 457 515Q457 577 421.5 613.0Q386 649 327 649H182Z" transform="translate(294.400 230.000) scale(0.00900 -0.00900)" fill="#9a917d"/><path d="M92 0V730H318Q383 730 432.0 703.5Q481 677 508.0 630.0Q535 583 535 520Q535 446 496.5 393.0Q458 340 392 320L545 0H439L299 310H182V0ZM182 391H318Q374 391 408.0 426.5Q442 462 442 520Q442 579 408.0 614.0Q374 649 318 649H182Z" transform="translate(300.800 230.000) scale(0.00900 -0.00900)" fill="#9a917d"/><path d="M300 -10Q234 -10 186.5 15.0Q139 40 113.5 87.5Q88 135 88 200V530Q88 596 113.5 643.0Q139 690 186.5 715.0Q234 740 300 740Q366 740 413.5 715.0Q461 690 486.5 643.0Q512 596 512 531V200Q512 135 486.5 87.5Q461 40 413.5 15.0Q366 -10 300 -10ZM300 71Q359 71 390.5 104.5Q422 138 422 200V530Q422 592 390.5 625.5Q359 659 300 659Q242 659 210.0 625.5Q178 592 178 530V200Q178 138 210.0 104.5Q242 71 300 71Z" transform="translate(307.200 230.000) scale(0.00900 -0.00900)" fill="#9a917d"/><path d="M270 -10Q165 -10 105.0 49.0Q45 108 45 210H135Q135 143 170.5 106.5Q206 70 270 70Q334 70 369.5 106.5Q405 143 405 210V648H230V730H495V210Q495 108 434.5 49.0Q374 -10 270 -10Z" transform="translate(313.600 230.000) scale(0.00900 -0.00900)" fill="#9a917d"/><path d="M100 0V730H520V648H189V422H485V341H189V82H520V0Z" transform="translate(320.000 230.000) scale(0.00900 -0.00900)" fill="#9a917d"/><path d="M304 -10Q238 -10 189.5 15.0Q141 40 114.5 87.5Q88 135 88 200V530Q88 596 114.5 643.0Q141 690 189.5 715.0Q238 740 304 740Q370 740 418.0 714.5Q466 689 492.0 642.0Q518 595 518 530H428Q428 592 395.5 625.5Q363 659 304 659Q245 659 211.5 626.0Q178 593 178 531V200Q178 138 211.5 104.5Q245 71 304 71Q363 71 395.5 104.5Q428 138 428 200H518Q518 136 492.0 88.5Q466 41 418.0 15.5Q370 -10 304 -10Z" transform="translate(326.400 230.000) scale(0.00900 -0.00900)" fill="#9a917d"/><path d="M255 0V649H55V731H545V649H345V0Z" transform="translate(332.800 230.000) scale(0.00900 -0.00900)" fill="#9a917d"/><path d="M93 0V730H300Q400 730 456.5 680.0Q513 630 513 541Q513 491 492.0 454.0Q471 417 432.5 397.0Q394 377 340 378V393Q398 394 440.5 371.0Q483 348 506.5 305.0Q530 262 530 203Q530 141 504.0 95.0Q478 49 430.0 24.5Q382 0 315 0ZM181 81H305Q368 81 404.5 114.5Q441 148 441 206Q441 266 404.5 303.5Q368 341 305 341H181ZM181 419H299Q357 419 390.5 450.0Q424 481 424 534Q424 587 391.0 618.0Q358 649 300 649H181Z" transform="translate(345.600 230.000) scale(0.00900 -0.00900)" fill="#9a917d"/><path d="M255 0V273L35 730H128L273 430Q285 405 292.0 387.5Q299 370 301 362Q303 370 310.5 387.5Q318 405 330 430L472 730H565L345 273V0Z" transform="translate(352.000 230.000) scale(0.00900 -0.00900)" fill="#9a917d"/><path d="M-24 -174Q-40 -174 -50.0 -166.0Q-60 -158 -60 -147Q-60 -143 -58 -137L-44 -96L27 -113Q47 -98 60.5 -79.0Q74 -60 83.0 -29.0Q92 2 101 51L199 604L130 644L133 660H370L367 644L285 604L220 240Q201 128 168.0 38.0Q135 -52 86 -101Q55 -132 34.5 -148.0Q14 -164 1.0 -169.0Q-12 -174 -24 -174Z" transform="translate(255.928 254.000) scale(0.01600 -0.01600)" fill="#3f7d4e"/><path d="M220 -10Q133 -10 91.5 44.5Q50 99 50 184Q50 231 67.0 279.5Q84 328 116.0 369.0Q148 410 192.0 435.0Q236 460 289 460Q376 460 417.5 406.0Q459 352 459 266Q459 221 442.5 172.5Q426 124 394.5 82.5Q363 41 319.0 15.5Q275 -10 220 -10ZM231 28Q275 28 306.5 61.5Q338 95 355.0 150.5Q372 206 372 272Q372 346 352.5 384.5Q333 423 280 423Q238 423 205.5 392.5Q173 362 155.0 308.0Q137 254 137 181Q137 107 157.0 67.5Q177 28 231 28Z" transform="translate(261.928 254.000) scale(0.01600 -0.01600)" fill="#3f7d4e"/><path d="M43 0 112 389 34 424V430L176 460H179V355H183Q219 394 245.5 417.0Q272 440 297.5 450.0Q323 460 355 460Q404 460 430.5 420.0Q457 380 445 312L410 119Q405 89 408.5 76.0Q412 63 425 63Q442 63 462.0 81.5Q482 100 500 138L513 132Q484 57 450.5 23.5Q417 -10 382 -10Q347 -10 334.0 17.0Q321 44 329 89L368 309Q373 344 359.5 371.5Q346 399 302 399Q280 399 256.5 384.0Q233 369 211.0 348.5Q189 328 172 309L119 0Z" transform="translate(270.072 254.000) scale(0.01600 -0.01600)" fill="#3f7d4e"/><path d="M136 -10Q96 -10 71.5 24.5Q47 59 47 128Q47 190 66.5 249.0Q86 308 120.5 356.0Q155 404 200.0 432.0Q245 460 296 460Q321 460 344.0 454.0Q367 448 385 438L420 460H445L384 119Q379 89 382.5 76.0Q386 63 399 63Q416 63 436.0 81.5Q456 100 474 138L487 132Q458 57 424.5 23.5Q391 -10 356 -10Q321 -10 308.0 17.0Q295 44 303 89L308 115H304Q267 57 224.5 23.5Q182 -10 136 -10ZM123 167Q123 111 135.5 83.5Q148 56 183 56Q207 56 231.0 72.0Q255 88 277.0 113.0Q299 138 316 164L353 370Q334 395 314.5 408.0Q295 421 267 421Q224 421 191.5 384.0Q159 347 141.0 289.0Q123 231 123 167Z" transform="translate(278.552 254.000) scale(0.01600 -0.01600)" fill="#3f7d4e"/><path d="M131 -10Q98 -10 81.0 11.5Q64 33 64 70Q64 78 65.5 88.0Q67 98 68 108L121 406H47V412L132 450L218 560H224L205 450H330V406H197L152 152Q150 139 149.0 128.5Q148 118 148 110Q148 86 156.0 76.0Q164 66 177 66Q200 66 226.5 92.0Q253 118 275 167L288 161Q255 67 214.5 28.5Q174 -10 131 -10Z" transform="translate(286.664 254.000) scale(0.01600 -0.01600)" fill="#3f7d4e"/><path d="M106 0H30L149 678L71 713V719L235 749H238L169 355H171Q206 394 232.5 417.0Q259 440 284.5 450.0Q310 460 342 460Q391 460 417.5 420.0Q444 380 432 312L397 119Q392 89 395.5 76.0Q399 63 412 63Q429 63 449.0 81.5Q469 100 487 138L500 132Q471 57 437.5 23.5Q404 -10 369 -10Q334 -10 321.0 17.0Q308 44 316 89L355 309Q360 344 346.5 371.5Q333 399 289 399Q267 399 244.0 384.5Q221 370 199.0 349.5Q177 329 161 311Z" transform="translate(291.688 254.000) scale(0.01600 -0.01600)" fill="#3f7d4e"/><path d="M136 -10Q96 -10 71.5 24.5Q47 59 47 128Q47 190 66.5 249.0Q86 308 120.5 356.0Q155 404 200.0 432.0Q245 460 296 460Q321 460 344.0 454.0Q367 448 385 438L420 460H445L384 119Q379 89 382.5 76.0Q386 63 399 63Q416 63 436.0 81.5Q456 100 474 138L487 132Q458 57 424.5 23.5Q391 -10 356 -10Q321 -10 308.0 17.0Q295 44 303 89L308 115H304Q267 57 224.5 23.5Q182 -10 136 -10ZM123 167Q123 111 135.5 83.5Q148 56 183 56Q207 56 231.0 72.0Q255 88 277.0 113.0Q299 138 316 164L353 370Q334 395 314.5 408.0Q295 421 267 421Q224 421 191.5 384.0Q159 347 141.0 289.0Q123 231 123 167Z" transform="translate(299.960 254.000) scale(0.01600 -0.01600)" fill="#3f7d4e"/><path d="M43 0 112 389 34 424V430L176 460H179V355H183Q219 394 245.5 417.0Q272 440 297.5 450.0Q323 460 355 460Q404 460 430.5 420.0Q457 380 445 312L410 119Q405 89 408.5 76.0Q412 63 425 63Q442 63 462.0 81.5Q482 100 500 138L513 132Q484 57 450.5 23.5Q417 -10 382 -10Q347 -10 334.0 17.0Q321 44 329 89L368 309Q373 344 359.5 371.5Q346 399 302 399Q280 399 256.5 384.0Q233 369 211.0 348.5Q189 328 172 309L119 0Z" transform="translate(308.072 254.000) scale(0.01600 -0.01600)" fill="#3f7d4e"/><path d="M10 0 13 16 96 56 192 604 123 644 126 660H373L370 644L278 604L181 50H412L505 222H521L482 0Z" transform="translate(320.360 254.000) scale(0.01600 -0.01600)" fill="#3f7d4e"/><path d="M196 585Q173 585 156.0 602.0Q139 619 139 642Q139 665 156.0 682.0Q173 699 196 699Q219 699 236.0 682.0Q253 665 253 642Q253 619 236.0 602.0Q219 585 196 585ZM125 -10Q90 -10 77.0 17.0Q64 44 72 89L125 390L38 424V430L211 460H214L153 119Q148 89 151.5 76.0Q155 63 168 63Q185 63 205.0 81.5Q225 100 243 138L256 132Q227 57 193.5 23.5Q160 -10 125 -10Z" transform="translate(329.928 254.000) scale(0.01600 -0.01600)" fill="#3f7d4e"/><path d="M43 0 112 389 34 424V430L176 460H179V355H183Q219 394 245.5 417.0Q272 440 297.5 450.0Q323 460 355 460Q404 460 430.5 420.0Q457 380 445 312L410 119Q405 89 408.5 76.0Q412 63 425 63Q442 63 462.0 81.5Q482 100 500 138L513 132Q484 57 450.5 23.5Q417 -10 382 -10Q347 -10 334.0 17.0Q321 44 329 89L368 309Q373 344 359.5 371.5Q346 399 302 399Q280 399 256.5 384.0Q233 369 211.0 348.5Q189 328 172 309L119 0Z" transform="translate(334.536 254.000) scale(0.01600 -0.01600)" fill="#3f7d4e"/><path d="M10 0 13 16 96 56 192 604 123 644 126 660H347Q466 660 540.0 625.5Q614 591 648.0 530.5Q682 470 682 392Q682 343 667.5 289.5Q653 236 622.5 184.5Q592 133 544.5 91.5Q497 50 432.0 25.0Q367 0 282 0ZM333 610H279L180 50H290Q389 50 455.5 91.0Q522 132 555.5 206.0Q589 280 589 380Q589 486 528.0 548.0Q467 610 333 610Z" transform="translate(346.824 254.000) scale(0.01600 -0.01600)" fill="#3f7d4e"/><path d="M136 -10Q96 -10 71.5 24.5Q47 59 47 128Q47 190 66.5 249.0Q86 308 120.5 356.0Q155 404 200.0 432.0Q245 460 296 460Q321 460 344.0 454.0Q367 448 385 438L420 460H445L384 119Q379 89 382.5 76.0Q386 63 399 63Q416 63 436.0 81.5Q456 100 474 138L487 132Q458 57 424.5 23.5Q391 -10 356 -10Q321 -10 308.0 17.0Q295 44 303 89L308 115H304Q267 57 224.5 23.5Q182 -10 136 -10ZM123 167Q123 111 135.5 83.5Q148 56 183 56Q207 56 231.0 72.0Q255 88 277.0 113.0Q299 138 316 164L353 370Q334 395 314.5 408.0Q295 421 267 421Q224 421 191.5 384.0Q159 347 141.0 289.0Q123 231 123 167Z" transform="translate(358.536 254.000) scale(0.01600 -0.01600)" fill="#3f7d4e"/><path d="M197 0 108 394 23 424V430L171 460H174L250 111H254L331 229Q356 268 371.0 300.0Q386 332 387 366L331 414L358 447Q369 460 382 460Q404 460 423.5 435.5Q443 411 443 381Q443 357 427.5 323.5Q412 290 371 228L218 0Z" transform="translate(366.648 254.000) scale(0.01600 -0.01600)" fill="#3f7d4e"/><path d="M196 585Q173 585 156.0 602.0Q139 619 139 642Q139 665 156.0 682.0Q173 699 196 699Q219 699 236.0 682.0Q253 665 253 642Q253 619 236.0 602.0Q219 585 196 585ZM125 -10Q90 -10 77.0 17.0Q64 44 72 89L125 390L38 424V430L211 460H214L153 119Q148 89 151.5 76.0Q155 63 168 63Q185 63 205.0 81.5Q225 100 243 138L256 132Q227 57 193.5 23.5Q160 -10 125 -10Z" transform="translate(373.816 254.000) scale(0.01600 -0.01600)" fill="#3f7d4e"/><path d="M302 127Q302 95 280.0 63.5Q258 32 217.5 11.0Q177 -10 121 -10Q97 -10 69.0 -0.5Q41 9 21.5 25.0Q2 41 2 60Q2 68 5.5 73.5Q9 79 15 84L38 106L117 26Q125 25 131 25Q181 25 209.0 48.0Q237 71 237 103Q237 129 221.5 151.0Q206 173 153 204Q100 236 82.0 263.5Q64 291 64 332Q64 362 86.5 391.5Q109 421 147.5 440.5Q186 460 235 460Q285 460 312.5 442.5Q340 425 340 402Q340 393 333 386L310 361L234 427Q229 427 224 427Q179 427 155.0 406.5Q131 386 131 354Q131 339 136.5 325.5Q142 312 160.0 297.0Q178 282 213 260Q266 228 284.0 199.0Q302 170 302 127Z" transform="translate(378.424 254.000) scale(0.01600 -0.01600)" fill="#3f7d4e"/></svg>